<svg width="42" height="44" viewBox="0 0 42 44" fill="none" xmlns="http://www.w3.org/2000/svg">
<g clip-path="url(#clip0_65_2204)">
<path d="M36.5111 41.6664L31.0295 30.0536C30.9754 29.9453 30.901 29.8506 30.8062 29.7693C30.7115 29.6881 30.61 29.6205 30.5017 29.5663L27.7812 28.3482L32.4913 20.4303V20.3897L32.5319 20.3491C32.9921 19.4288 33.344 18.4813 33.5876 17.5068C33.8312 16.5323 33.9531 15.5172 33.9531 14.4615C33.9531 12.7291 33.6215 11.071 32.9583 9.48747C32.295 7.9039 31.3408 6.50306 30.0956 5.28492C28.8504 4.03972 27.4293 3.09906 25.8322 2.46292C24.2351 1.82679 22.5568 1.52225 20.7972 1.54932C19.1189 1.57639 17.5083 1.91476 15.9653 2.56443C14.4224 3.2141 13.0418 4.148 11.8237 5.36613C10.6326 6.58426 9.71226 7.97158 9.06259 9.52808C8.41292 11.0846 8.07456 12.702 8.04749 14.3803C8.04749 15.436 8.1693 16.4714 8.41292 17.4865C8.65655 18.5016 9.00846 19.4558 9.46864 20.3491L9.50924 20.3897V20.4303L14.2193 28.3482L11.4989 29.5663C11.3906 29.6205 11.2891 29.6881 11.1943 29.7693C11.0996 29.8506 11.0251 29.9453 10.971 30.0536L5.48941 41.6664C5.4082 41.8559 5.3879 42.0589 5.42851 42.2755C5.46911 42.492 5.55709 42.668 5.69243 42.8033C5.85485 42.9658 6.03757 43.0673 6.24059 43.1079C6.44361 43.1485 6.63987 43.1282 6.82936 43.047L13.7321 39.961L20.5942 43.047C20.7296 43.1011 20.8649 43.1282 21.0003 43.1282C21.1356 43.1282 21.271 43.1011 21.4063 43.047L28.2684 39.961L35.1712 43.047C35.2253 43.074 35.2862 43.0943 35.3539 43.1079C35.4216 43.1214 35.496 43.1282 35.5772 43.1282C35.7126 43.1282 35.8412 43.1011 35.963 43.047C36.0848 42.9928 36.1998 42.9116 36.3081 42.8033C36.4435 42.668 36.5314 42.492 36.572 42.2755C36.6126 42.0589 36.5923 41.8559 36.5111 41.6664ZM11.2958 19.4152C10.8898 18.6302 10.592 17.8181 10.4025 16.979C10.2131 16.1398 10.1183 15.2871 10.1183 14.4209C10.1183 12.9321 10.4025 11.538 10.971 10.2387C11.5395 8.93932 12.3109 7.80239 13.2854 6.82789C14.26 5.85339 15.3969 5.06837 16.6962 4.47284C17.9956 3.90438 19.3761 3.60661 20.8379 3.57954C22.2996 3.57954 23.7072 3.84347 25.0607 4.37133C26.4142 4.89918 27.6052 5.69097 28.6339 6.74668C29.6896 7.77532 30.4949 8.95285 31.0498 10.2793C31.6048 11.6057 31.8822 12.9998 31.8822 14.4615C31.8822 15.3277 31.7807 16.1737 31.5777 16.9993C31.3747 17.8249 31.0837 18.6302 30.7047 19.4152L21.8936 34.1952C21.7582 34.4118 21.5958 34.5471 21.4063 34.6013C21.2168 34.6554 21.0815 34.6825 21.0003 34.6825C20.9191 34.6825 20.7837 34.6554 20.5942 34.6013C20.4047 34.5471 20.2423 34.4118 20.107 34.1952L11.2958 19.4152ZM28.7151 37.9308C28.5798 37.8496 28.4376 37.809 28.2888 37.809C28.1399 37.809 27.9978 37.8496 27.8624 37.9308L21.0003 40.9761L14.1381 37.9308C14.0028 37.8496 13.8607 37.809 13.7118 37.809C13.5629 37.809 13.4208 37.8496 13.2854 37.9308L8.53474 40.0422L12.6764 31.2717L15.3157 30.1348L18.361 35.2509C18.6317 35.7111 19.0039 36.0766 19.4776 36.3472C19.9513 36.6179 20.4589 36.7533 21.0003 36.7533C21.5417 36.7533 22.0492 36.6179 22.5229 36.3472C22.9967 36.0766 23.3689 35.7111 23.6396 35.2509L26.6849 30.1348L29.3242 31.2717L33.4658 40.0422L28.7151 37.9308ZM24.3095 11.1726C24.3095 11.1726 24.0828 10.9425 23.6294 10.4823C23.176 10.0221 22.2996 9.79201 21.0003 9.79201C19.7009 9.79201 18.5978 10.2522 17.691 11.1726C16.7842 12.0929 16.3308 13.1892 16.3308 14.4615C16.3308 15.7608 16.7842 16.8707 17.691 17.7911C18.5978 18.7114 19.7009 19.1716 21.0003 19.1716C22.2996 19.1716 23.4027 18.7114 24.3095 17.7911C25.2164 16.8707 25.6698 15.7608 25.6698 14.4615C25.6698 13.1892 25.2164 12.0929 24.3095 11.1726ZM22.8681 16.3293C22.8681 16.3293 22.7395 16.4579 22.4823 16.715C22.2252 16.9722 21.7311 17.1008 21.0003 17.1008C20.2694 17.1008 19.6468 16.8436 19.1325 16.3293C18.6181 15.815 18.361 15.1924 18.361 14.4615C18.361 13.7577 18.6181 13.1486 19.1325 12.6343C19.6468 12.12 20.2694 11.8628 21.0003 11.8628C21.7311 11.8628 22.3538 12.12 22.8681 12.6343C23.3824 13.1486 23.6396 13.7577 23.6396 14.4615C23.6396 15.1924 23.3824 15.815 22.8681 16.3293Z" fill="#D9241B"/>
</g>
<defs>
<clipPath id="clip0_65_2204">
<rect width="42" height="43" fill="white" transform="matrix(1 0 0 -1 0 43.25)"/>
</clipPath>
</defs>
</svg>
