<svg width="43" height="44" viewBox="0 0 43 44" fill="none" xmlns="http://www.w3.org/2000/svg">
<path d="M35.2167 39.8799C35.0813 39.8799 34.946 39.8799 34.8106 39.8799C29.2614 39.2573 24.1452 37.4301 19.4622 34.3983C15.104 31.6372 11.5443 28.0911 8.78324 23.76C5.75145 19.0499 3.93779 13.9202 3.34226 8.37091C3.23398 7.15278 3.56558 6.08353 4.33706 5.16317C5.10854 4.2428 6.08982 3.72848 7.28088 3.6202C7.30795 3.6202 7.34855 3.6202 7.40269 3.6202C7.45683 3.6202 7.5042 3.6202 7.54481 3.6202C7.58541 3.6202 7.61925 3.6202 7.64632 3.6202H12.8437H12.8843C13.5881 3.6202 14.2513 3.78262 14.8739 4.10746C15.4965 4.43229 16.0108 4.87894 16.4169 5.4474C16.8229 6.01586 17.0801 6.65199 17.1883 7.3558C17.2966 8.14082 17.4455 8.92584 17.635 9.71085C17.8245 10.4959 18.0681 11.2674 18.3659 12.0253C18.5554 12.5667 18.6433 13.1081 18.6298 13.6495C18.6163 14.1909 18.5012 14.7187 18.2847 15.233C18.0681 15.7474 17.7703 16.2076 17.3914 16.6136L15.6454 18.319C17.9463 22.1358 21.0051 25.1946 24.822 27.4956L26.5273 25.7902C27.1229 25.1946 27.8402 24.8089 28.6794 24.633C29.5185 24.457 30.3306 24.5044 31.1156 24.7751C32.6315 25.3435 34.188 25.736 35.7851 25.9526C36.8679 26.115 37.768 26.6158 38.4853 27.455C39.2027 28.2941 39.5478 29.2551 39.5207 30.3379V35.5352C39.5207 36.7263 39.1012 37.7482 38.262 38.6008C37.4228 39.4535 36.4077 39.8799 35.2167 39.8799ZM12.8843 5.36619H7.64632C7.61925 5.36619 7.58541 5.36619 7.54481 5.36619C7.5042 5.36619 7.47036 5.36619 7.44329 5.36619C7.19967 5.39326 6.96958 5.44063 6.75302 5.5083C6.53646 5.57598 6.34021 5.67749 6.16426 5.81284C5.98831 5.94818 5.81912 6.1106 5.6567 6.30009C5.44015 6.57079 5.2845 6.86855 5.18975 7.19339C5.09501 7.51822 5.06117 7.84306 5.08824 8.16789C5.62963 13.4735 7.34855 18.3596 10.245 22.8261C12.8707 26.9406 16.2544 30.3108 20.3961 32.9365C24.8355 35.833 29.6945 37.5654 34.973 38.1339C35.0542 38.1339 35.1355 38.1339 35.2167 38.1339C35.9205 38.1339 36.5228 37.8767 37.0236 37.3624C37.5243 36.8481 37.7747 36.239 37.7747 35.5352V30.3379V30.2973C37.8018 29.6476 37.5988 29.0724 37.1657 28.5716C36.7326 28.0708 36.1912 27.7663 35.5415 27.658C33.809 27.4414 32.1307 27.0218 30.5066 26.3992C30.1817 26.291 29.8569 26.2436 29.5321 26.2571C29.2072 26.2707 28.8892 26.3383 28.5779 26.4601C28.2666 26.582 27.9891 26.7647 27.7455 27.0083L25.5528 29.2009C25.4716 29.2821 25.3701 29.3431 25.2483 29.3837C25.1265 29.4243 25.0047 29.4446 24.8829 29.4446C24.761 29.4446 24.646 29.404 24.5377 29.3228C19.963 26.7511 16.3898 23.178 13.8182 18.6032C13.7099 18.4408 13.6693 18.2648 13.6964 18.0753C13.7234 17.8859 13.8046 17.7234 13.94 17.5881L16.1326 15.3955C16.3221 15.206 16.471 15.003 16.5793 14.7864C16.6876 14.5698 16.7688 14.3398 16.8229 14.0961C16.877 13.8525 16.8973 13.6089 16.8838 13.3652C16.8703 13.1216 16.8229 12.878 16.7417 12.6344C16.1191 11.0102 15.6995 9.31835 15.483 7.55882C15.4017 7.15278 15.2393 6.78057 14.9957 6.4422C14.7521 6.10384 14.4475 5.8399 14.0821 5.65042C13.7167 5.46093 13.3174 5.36619 12.8843 5.36619Z" fill="#D9241B"/>
</svg>
