<svg width="43" height="44" viewBox="0 0 43 44" fill="none" xmlns="http://www.w3.org/2000/svg">
<g clip-path="url(#clip0_65_2217)">
<path d="M42.1251 19.0091L36.8465 15.5171V3.74188C36.8465 3.55239 36.7789 3.38997 36.6435 3.25463C36.5082 3.11928 36.3458 3.05161 36.1563 3.05161H7.16477C6.97528 3.05161 6.81286 3.11928 6.67752 3.25463C6.54217 3.38997 6.47449 3.55239 6.47449 3.74188V15.5171L1.19593 19.0091C1.08765 19.0903 1.00644 19.1783 0.952302 19.273C0.898163 19.3678 0.871094 19.4693 0.871094 19.5776V40.9355C0.871094 41.1249 0.938768 41.2874 1.07412 41.4227C1.20946 41.5581 1.37188 41.6257 1.56137 41.6257H41.7597C41.9492 41.6257 42.1116 41.5581 42.2469 41.4227C42.3823 41.2874 42.4499 41.1249 42.4499 40.9355V19.5776C42.4499 19.4693 42.4229 19.3678 42.3687 19.273C42.3146 19.1783 42.2334 19.0903 42.1251 19.0091ZM6.47449 21.4454L4.32246 20.2678H6.47449V21.4454ZM2.25164 20.7551L18.0873 29.1602L2.25164 39.6361V20.7551ZM21.6605 28.4293L39.4858 40.2452H3.83521L21.6605 28.4293ZM25.2337 29.1602L41.0694 20.7551V39.6361L25.2337 29.1602ZM36.8465 20.2678H38.9986L36.8465 21.4454V20.2678ZM39.4858 18.9279H36.8465V17.1413L39.4858 18.9279ZM35.466 4.43215V22.1763L23.9344 28.2669L22.026 27.0082C21.9177 26.954 21.7959 26.927 21.6605 26.927C21.5252 26.927 21.4034 26.954 21.2951 27.0082L19.3867 28.2669L7.85504 22.1763V4.43215H35.466ZM6.47449 18.9279H3.83521L6.47449 17.1413V18.9279ZM21.6605 21.1611H27.1421C27.3316 21.1611 27.494 21.0935 27.6294 20.9581C27.7647 20.8228 27.8324 20.6604 27.8324 20.4709C27.8324 20.2814 27.7647 20.119 27.6294 19.9836C27.494 19.8483 27.3316 19.7806 27.1421 19.7806H21.6605C20.3341 19.7806 19.204 19.3136 18.2701 18.3797C17.3362 17.4458 16.8692 16.3157 16.8692 14.9893V14.7863C16.8692 13.4599 17.3362 12.3297 18.2701 11.3958C19.204 10.4619 20.3341 9.99495 21.6605 9.99495C22.9869 9.99495 24.1171 10.4619 25.051 11.3958C25.9849 12.3297 26.4518 13.4599 26.4518 14.7863V15.2735C26.4518 15.5713 26.3503 15.8217 26.1473 16.0247C25.9443 16.2277 25.7074 16.3292 25.4367 16.3292C25.139 16.3292 24.8886 16.2277 24.6855 16.0247C24.4825 15.8217 24.381 15.5713 24.381 15.2735V14.3396C24.381 13.5005 24.09 12.7899 23.508 12.2079C22.926 11.6259 22.229 11.3349 21.4169 11.3349C20.5777 11.3349 19.8672 11.6259 19.2852 12.2079C18.7032 12.7899 18.4122 13.5005 18.4122 14.3396C18.4122 15.1517 18.7032 15.8487 19.2852 16.4307C19.8672 17.0127 20.5777 17.3037 21.4169 17.3037C21.7959 17.3037 22.1478 17.2361 22.4726 17.1007C22.7974 16.9654 23.0952 16.7894 23.3659 16.5729C23.5825 16.8977 23.8735 17.1684 24.2389 17.3849C24.6043 17.6015 25.0036 17.7098 25.4367 17.7098C26.0864 17.7098 26.6481 17.4729 27.1218 16.9992C27.5955 16.5255 27.8324 15.9503 27.8324 15.2735V14.7863C27.8324 13.0809 27.2301 11.6259 26.0255 10.4213C24.8209 9.2167 23.3659 8.6144 21.6605 8.6144C19.9551 8.6144 18.5001 9.2167 17.2956 10.4213C16.091 11.6259 15.4887 13.0809 15.4887 14.7863V14.9893C15.4887 16.6947 16.091 18.1497 17.2956 19.3542C18.5001 20.5588 19.9551 21.1611 21.6605 21.1611ZM21.4169 15.9232C20.9567 15.9232 20.571 15.7675 20.2597 15.4562C19.9484 15.1449 19.7927 14.7727 19.7927 14.3396C19.7927 13.8794 19.9484 13.4937 20.2597 13.1824C20.571 12.8711 20.9567 12.7154 21.4169 12.7154C21.85 12.7154 22.2222 12.8711 22.5335 13.1824C22.8448 13.4937 23.0005 13.8794 23.0005 14.3396C23.0005 14.7727 22.8448 15.1449 22.5335 15.4562C22.2222 15.7675 21.85 15.9232 21.4169 15.9232Z" fill="white"/>
</g>
<defs>
<clipPath id="clip0_65_2217">
<rect width="42" height="43" fill="white" transform="matrix(1 0 0 -1 0.660156 43.25)"/>
</clipPath>
</defs>
</svg>
