<svg width="43" height="43" viewBox="0 0 43 43" fill="none" xmlns="http://www.w3.org/2000/svg">
<path d="M32.7061 10.7195L26.5343 20.4646V32.2398H22.352V27.2455H18.0074L8.95259 2.1926L3.83645 3.77617L4.08007 4.54766V15.6326C3.4304 15.8492 2.88224 16.2485 2.4356 16.8305C1.98895 17.4125 1.76562 18.096 1.76562 18.881C1.76562 19.7472 2.08369 20.5119 2.71983 21.1751C3.35596 21.8383 4.09361 22.1699 4.93276 22.1699C5.79899 22.1699 6.5434 21.8383 7.166 21.1751C7.7886 20.5119 8.0999 19.7472 8.0999 18.881H6.39452C6.39452 19.3412 6.24564 19.7337 5.94787 20.0585C5.65011 20.3834 5.31174 20.5458 4.93276 20.5458C4.55379 20.5458 4.21542 20.3834 3.91766 20.0585C3.61989 19.7337 3.47101 19.3412 3.47101 18.881C3.47101 18.3937 3.60636 17.9877 3.87705 17.6629C4.14775 17.338 4.49965 17.1756 4.93276 17.1756H5.78546V9.46078L12.3228 28.22V32.2398H7.00359V41.9849H41.5579V10.7195H32.7061ZM20.7279 28.8697V32.2398H14.0281V28.8697H20.7279ZM7.93749 4.22282L16.1802 27.2455H13.7033L5.98848 4.9131L7.93749 4.22282ZM39.9337 40.2795H8.70897V33.9452H39.9337V40.2795ZM28.1991 20.9112L33.6806 12.3437H39.8525V31.8338H28.1991V20.9112ZM30.8383 18.881V21.7233H38.5532V13.6836H34.2491L30.8383 18.881ZM36.929 15.3078V20.0585H32.5437V19.3682L35.2236 15.3078H36.929Z" fill="#D9241B"/>
</svg>
