<svg width="43" height="43" viewBox="0 0 43 43" fill="none" xmlns="http://www.w3.org/2000/svg">
<g clip-path="url(#clip0_65_700)">
<path d="M40.7494 36.3815L40.8306 32.3617C40.8306 32.3346 40.7968 31.8812 40.7291 31.0014C40.6614 30.1217 40.4381 29.1404 40.0591 28.0576L37.9071 22.9821H34.3339L32.1007 28.1388C31.7758 29.1675 31.5796 30.1217 31.5119 31.0014C31.4442 31.8812 31.4104 32.3346 31.4104 32.3617V33.7016H29.4208C28.8794 33.7016 28.4124 33.5054 28.0199 33.1129C27.6274 32.7203 27.4312 32.2534 27.4312 31.712V28.8697C29.0553 27.9493 30.3614 26.6703 31.3495 25.0326C32.3375 23.3949 32.8315 21.5745 32.8315 19.5713V19.4901C33.4271 19.3277 33.9076 19.0096 34.273 18.5359C34.6384 18.0622 34.8212 17.514 34.8212 16.8914C34.8212 16.2688 34.7399 15.768 34.5775 15.3891C34.4151 15.0101 34.2527 14.7394 34.0903 14.577V14.4146V14.1709V12.831C34.0632 11.1797 33.7248 9.6097 33.0752 8.12088C32.4526 6.65912 31.5931 5.38685 30.4968 4.30407C29.4005 3.22129 28.1214 2.35506 26.6597 1.70539C25.1709 1.08279 23.6008 0.771492 21.9496 0.771492C20.2983 0.771492 18.7283 1.08279 17.2395 1.70539C15.7777 2.35506 14.5055 3.22129 13.4227 4.30407C12.3399 5.38685 11.4737 6.65912 10.824 8.12088C10.2014 9.6097 9.89009 11.1797 9.89009 12.831V14.1709V14.3739V14.577C9.75474 14.7394 9.59909 15.0101 9.42314 15.3891C9.24719 15.768 9.15921 16.2688 9.15921 16.8914C9.15921 17.514 9.34193 18.0689 9.70737 18.5562C10.0728 19.0434 10.5533 19.3547 11.1488 19.4901V19.5713C11.1488 21.5745 11.6428 23.3881 12.6309 25.0123C13.6189 26.6365 14.925 27.9223 16.5492 28.8697V31.712C16.5492 32.2534 16.3529 32.7203 15.9604 33.1129C15.5679 33.5054 15.101 33.7016 14.5596 33.7016H11.23V32.7677C11.8797 32.3617 12.3737 31.8474 12.7121 31.2248C13.0505 30.6022 13.2196 29.8713 13.2196 29.0321C13.2196 28.22 12.949 27.4079 12.4076 26.5959C11.8662 25.7838 11.0541 25.2694 9.9713 25.0529L9.15921 24.8905V28.3824H7.90048V24.8905L7.04779 25.0529C6.01914 25.2965 5.22736 25.8244 4.67243 26.6365C4.11751 27.4485 3.84004 28.2471 3.84004 29.0321C3.84004 29.8713 4.00246 30.6022 4.3273 31.2248C4.65213 31.8474 5.15292 32.3617 5.82966 32.7677V34.4325C4.44911 35.0551 3.32572 36.0161 2.4595 37.3154C1.59327 38.6147 1.16016 40.0765 1.16016 41.7007V42.3503H2.5001V41.7007C2.5001 39.9412 3.0821 38.432 4.24609 37.1733C5.41008 35.9146 6.84476 35.204 8.55015 35.0416V42.3503H9.89009V34.9604H11.8797V42.3503H13.2196V34.9604H14.5596C14.6679 34.9604 14.7897 34.9468 14.925 34.9197C15.0604 34.8927 15.2093 34.8791 15.3717 34.8791C15.6694 36.4221 16.4342 37.7214 17.6658 38.7772C18.8975 39.8329 20.3254 40.3607 21.9496 40.3607C23.5738 40.3607 25.0017 39.8396 26.2333 38.7975C27.465 37.7553 28.2297 36.4492 28.5275 34.8791C28.6358 34.9062 28.7576 34.9265 28.8929 34.94C29.0283 34.9536 29.1772 34.9604 29.3396 34.9604H30.6795V42.3503H32.0195V34.9604H34.0091V42.3503H35.349V35.0416C37.0544 35.204 38.4891 35.9281 39.6531 37.2139C40.8171 38.4997 41.3991 39.9953 41.3991 41.7007V42.3503H42.739V41.7007C42.739 40.6991 42.5631 39.7381 42.2112 38.8178C41.8592 37.8974 41.372 37.0853 40.7494 36.3815ZM10.2149 31.712L9.89009 31.8744V33.6204H9.24042C8.88852 33.6204 8.55015 33.6407 8.22531 33.6813C7.90048 33.7219 7.57564 33.7828 7.25081 33.864V31.8744L6.88537 31.712C6.34398 31.4142 5.93117 31.0488 5.64694 30.6157C5.36271 30.1826 5.22059 29.6276 5.22059 28.9509C5.22059 28.5449 5.3424 28.1185 5.58603 27.6719C5.82966 27.2252 6.15449 26.853 6.56053 26.5553V29.6412H10.5398V26.5553C10.9999 26.7989 11.3383 27.144 11.5549 27.5907C11.7714 28.0373 11.8797 28.4907 11.8797 28.9509C11.8797 29.6276 11.7511 30.1961 11.494 30.6563C11.2368 31.1165 10.8105 31.4684 10.2149 31.712ZM32.6691 16.323C32.7503 16.2688 32.8315 16.2079 32.9128 16.1402C32.994 16.0726 33.0752 15.9981 33.1564 15.9169C33.2105 16.0252 33.2579 16.1673 33.2985 16.3433C33.3391 16.5192 33.3594 16.7019 33.3594 16.8914C33.3594 17.1621 33.2985 17.3922 33.1767 17.5817C33.0549 17.7712 32.8857 17.9336 32.6691 18.0689V16.323ZM21.2999 2.19264V6.86214H22.5993V2.19264C23.9798 2.27385 25.2791 2.59869 26.4973 3.16715C27.6883 3.73561 28.7373 4.48002 29.6441 5.40039C30.5509 6.32075 31.275 7.39 31.8164 8.60813C32.3578 9.82626 32.6421 11.1256 32.6691 12.5061C31.4781 11.8835 29.8065 11.4504 27.6545 11.2068C25.5025 10.9632 23.6008 10.8414 21.9496 10.8414C20.2983 10.8414 18.3967 10.9632 16.2447 11.2068C14.0926 11.4504 12.4211 11.8835 11.23 12.5061C11.2571 11.1256 11.5413 9.82626 12.0827 8.60813C12.6241 7.39 13.3482 6.32075 14.2551 5.40039C15.1619 4.48002 16.2108 3.73561 17.4019 3.16715C18.62 2.59869 19.9194 2.27385 21.2999 2.19264ZM11.23 18.0689C11.0135 17.9336 10.8443 17.7712 10.7225 17.5817C10.6007 17.3922 10.5398 17.1621 10.5398 16.8914C10.5398 16.7019 10.5601 16.5192 10.6007 16.3433C10.6413 16.1673 10.6886 16.0252 10.7428 15.9169C10.824 15.9981 10.9052 16.0658 10.9864 16.1199C11.0676 16.1741 11.1488 16.2417 11.23 16.323V18.0689ZM11.23 14.1709C11.3112 13.819 12.2857 13.3994 14.1535 12.9122C16.0213 12.4249 18.62 12.1813 21.9496 12.1813C25.3062 12.1813 27.9252 12.4249 29.8065 12.9122C31.6879 13.3994 32.6421 13.819 32.6691 14.1709C32.6691 14.8206 31.7217 15.4229 29.8268 15.9778C27.932 16.5327 25.3062 16.8102 21.9496 16.8102C18.593 16.8643 15.9672 16.6004 14.0723 16.0184C12.1775 15.4364 11.23 14.8206 11.23 14.1709ZM12.57 19.5713V16.9726C14.0588 17.514 15.7642 17.8592 17.6861 18.008C19.6081 18.1569 21.0292 18.2314 21.9496 18.2314C22.8699 18.2314 24.2911 18.1705 26.213 18.0486C28.135 17.9268 29.8404 17.5682 31.3292 16.9726V19.5713C31.3292 20.8436 31.0856 22.0617 30.5983 23.2257C30.1111 24.3626 29.4411 25.3574 28.5884 26.2101C27.7357 27.0628 26.7409 27.7328 25.604 28.22C24.4671 28.7073 23.2489 28.9509 21.9496 28.9509C20.6502 28.9509 19.4321 28.7073 18.2952 28.22C17.1583 27.7328 16.1635 27.0628 15.3108 26.2101C14.4581 25.3574 13.7881 24.3626 13.3009 23.2257C12.8136 22.0617 12.57 20.8436 12.57 19.5713ZM25.5431 37.6402C25.5431 37.6402 25.2893 37.8703 24.7817 38.3305C24.2742 38.7907 23.3301 39.0208 21.9496 39.0208C20.569 39.0208 19.378 38.5606 18.3764 37.6402C17.3748 36.7199 16.7928 35.5965 16.6304 34.2701C17.0094 33.9994 17.3275 33.6272 17.5846 33.1535C17.8418 32.6797 17.9704 32.1722 17.9704 31.6308V29.4788C18.593 29.7224 19.2359 29.9186 19.8991 30.0675C20.5623 30.2164 21.2458 30.2909 21.9496 30.2909C22.6534 30.2909 23.3369 30.2232 24.0001 30.0878C24.6633 29.9525 25.3062 29.7495 25.9288 29.4788V31.6308C25.9288 32.1722 26.0506 32.6662 26.2942 33.1129C26.5379 33.5595 26.8627 33.9452 27.2688 34.2701C27.1334 35.5965 26.5582 36.7199 25.5431 37.6402ZM34.5775 33.6204H32.7503V32.2805L32.8315 31.1029L33.3594 28.5449L35.1866 24.2408H35.4302V30.3721C35.0513 30.5074 34.7332 30.7443 34.476 31.0826C34.2189 31.421 34.0903 31.8203 34.0903 32.2805C34.0361 32.5782 34.0632 32.8354 34.1715 33.0519C34.2798 33.2685 34.4151 33.458 34.5775 33.6204ZM36.5468 32.7474C36.5468 32.7474 36.5096 32.7846 36.4352 32.8591C36.3607 32.9335 36.2423 32.9707 36.0799 32.9707C35.9175 32.9707 35.7686 32.8963 35.6332 32.7474C35.4979 32.5985 35.4302 32.4429 35.4302 32.2805C35.4302 32.118 35.4979 31.9692 35.6332 31.8338C35.7686 31.6985 35.9175 31.6308 36.0799 31.6308C36.2423 31.6308 36.398 31.6985 36.5468 31.8338C36.6957 31.9692 36.7702 32.118 36.7702 32.2805C36.7702 32.4429 36.6957 32.5985 36.5468 32.7474ZM39.4095 35.204C39.0846 34.9604 38.7192 34.737 38.3131 34.534C37.9071 34.331 37.501 34.1618 37.095 34.0265C37.3657 33.864 37.5958 33.6272 37.7853 33.3159C37.9748 33.0046 38.0695 32.6594 38.0695 32.2805C38.0695 31.8203 37.9409 31.4278 37.6838 31.1029C37.4266 30.7781 37.1221 30.5345 36.7702 30.3721V24.2408H37.0138L38.841 28.4637C39.1658 29.4111 39.3553 30.2773 39.4095 31.0623L39.4907 32.2805L39.4095 35.204ZM22.5993 20.221H28.6899V18.881H21.2999V25.6214H22.5993V20.221ZM13.2196 9.50143H14.5596V10.8414H13.2196V9.50143ZM15.9807 8.85176H17.2801V10.1511H15.9807V8.85176Z" fill="#D9241B"/>
</g>
<defs>
<clipPath id="clip0_65_700">
<rect width="42" height="43" fill="white" transform="matrix(1 0 0 -1 0.949219 43)"/>
</clipPath>
</defs>
</svg>
