<svg width="43" height="43" viewBox="0 0 43 43" fill="none" xmlns="http://www.w3.org/2000/svg">
<g clip-path="url(#clip0_65_691)">
<path d="M39.247 10.0293C39.247 10.0293 39.0575 9.74505 38.6786 9.17659C38.2996 8.60813 37.6229 7.83665 36.6484 6.86214C35.6739 5.88764 34.6181 5.02141 33.4812 4.26347C32.3443 3.50552 31.1532 2.86938 29.908 2.35506C28.6628 1.84074 27.377 1.44823 26.0506 1.17754C24.6971 0.906841 23.3301 0.771492 21.9496 0.771492C20.569 0.771492 19.202 0.906841 17.8485 1.17754C16.5221 1.44823 15.2363 1.84074 13.9911 2.35506C12.7459 2.86938 11.5549 3.50552 10.4179 4.26347C9.28102 5.02141 8.22531 5.88764 7.25081 6.86214C6.2763 7.83665 5.41008 8.89236 4.65213 10.0293C3.89418 11.1662 3.25805 12.3573 2.74373 13.6025C2.2294 14.8477 1.8369 16.1335 1.5662 17.4599C1.2955 18.8134 1.16016 20.1804 1.16016 21.5609C1.16016 22.9415 1.2955 24.3085 1.5662 25.662C1.8369 26.9884 2.2294 28.2742 2.74373 29.5194C3.25805 30.7646 3.89418 31.9556 4.65213 33.0926C5.41008 34.2295 6.2763 35.2852 7.25081 36.2597C8.22531 37.2342 9.28102 38.1004 10.4179 38.8584C11.5549 39.6163 12.7459 40.2525 13.9911 40.7668C15.2363 41.2811 16.5221 41.6736 17.8485 41.9443C19.202 42.215 20.569 42.3503 21.9496 42.3503C23.3301 42.3503 24.6971 42.215 26.0506 41.9443C27.377 41.6736 28.6628 41.2811 29.908 40.7668C31.1532 40.2525 32.3443 39.6163 33.4812 38.8584C34.6181 38.1004 35.6739 37.2342 36.6484 36.2597C37.6229 35.2852 38.4891 34.2295 39.247 33.0926C40.005 31.9556 40.6411 30.7646 41.1554 29.5194C41.6698 28.2742 42.0623 26.9884 42.333 25.662C42.6037 24.3085 42.739 22.9415 42.739 21.5609C42.739 20.1804 42.6037 18.8134 42.333 17.4599C42.0623 16.1335 41.6698 14.8477 41.1554 13.6025C40.6411 12.3573 40.005 11.1662 39.247 10.0293ZM39.4095 14.8206C39.1929 14.4687 38.8478 14.1845 38.374 13.9679C37.9003 13.7513 37.3251 13.5348 36.6484 13.3182C35.9445 13.0746 35.4235 12.6144 35.0851 11.9377C34.7467 11.2609 34.4286 10.503 34.1309 9.66385C33.8873 8.9059 33.603 8.17502 33.2782 7.47121C32.9534 6.7674 32.4796 6.17187 31.857 5.68462C33.5624 6.7674 35.0648 8.08704 36.3641 9.64354C37.6635 11.2 38.6786 12.9257 39.4095 14.8206ZM33.5624 21.967C33.6436 22.6708 33.6436 23.4016 33.5624 24.1596C33.4812 24.9175 33.0075 25.7973 32.1413 26.7989C31.8976 27.0425 31.7014 27.347 31.5525 27.7125C31.4036 28.0779 31.248 28.4501 31.0856 28.8291C30.7607 29.7495 30.3479 30.5683 29.8471 31.2857C29.3463 32.003 28.4192 32.3617 27.0657 32.3617C27.0116 32.3346 26.9371 32.2128 26.8424 31.9962C26.7477 31.7797 26.6597 31.4007 26.5785 30.8593C26.4973 30.345 26.4228 29.7765 26.3552 29.1539C26.2875 28.5313 26.2266 27.8817 26.1724 27.2049C26.0912 26.1492 25.9897 25.0529 25.8679 23.916C25.7461 22.779 25.5634 21.7098 25.3197 20.7082C24.9678 19.436 24.5144 18.4276 23.9595 17.6832C23.4046 16.9388 22.7211 16.4312 21.909 16.1605C21.5571 16.0252 21.1916 15.9304 20.8127 15.8763C20.4337 15.8222 20.0547 15.7951 19.6757 15.7951C19.378 15.7951 19.1005 15.8086 18.8433 15.8357C18.5862 15.8628 18.3358 15.8898 18.0922 15.9169C17.9298 15.944 17.7606 15.9643 17.5846 15.9778C17.4087 15.9914 17.253 15.9981 17.1177 15.9981C16.874 15.9981 16.6101 15.9304 16.3259 15.7951C16.0416 15.6598 15.7371 15.2131 15.4123 14.4552C14.925 13.3182 14.8777 11.9851 15.2702 10.4556C15.6627 8.9262 16.5763 7.68777 18.011 6.74033C18.796 6.22601 19.4727 5.84703 20.0412 5.60341C20.6096 5.35978 21.1375 5.23797 21.6247 5.23797C22.0308 5.23797 22.4504 5.31241 22.8835 5.46129C23.3166 5.61018 23.8309 5.84703 24.4264 6.17187C25.1303 6.52377 25.7529 6.7471 26.2942 6.84184C26.8356 6.93658 27.3094 6.98396 27.7154 6.98396H28.2027L28.6087 6.94335H28.9335H29.2584C29.4749 6.94335 29.6847 6.96365 29.8877 7.00426C30.0908 7.04486 30.3005 7.13284 30.5171 7.26819C30.9231 7.56595 31.248 7.9923 31.4916 8.54723C31.7352 9.10215 31.9653 9.69091 32.1819 10.3135C32.5067 11.288 32.9195 12.2558 33.4203 13.2167C33.9211 14.1777 34.7806 14.8612 35.9987 15.2672L36.6077 15.4703L37.2574 15.7139C37.095 15.9034 36.8784 16.1132 36.6077 16.3433C36.3371 16.5733 36.0664 16.8237 35.7957 17.0944C35.6062 17.2298 35.4099 17.3922 35.2069 17.5817C35.0039 17.7712 34.7941 17.9607 34.5775 18.1502C33.9279 18.7457 33.5827 19.375 33.5421 20.0383C33.5015 20.7015 33.5083 21.3444 33.5624 21.967ZM3.23098 21.3985C3.33926 21.4256 3.4543 21.4526 3.57611 21.4797C3.69793 21.5068 3.82651 21.5338 3.96186 21.5609C4.53032 21.6692 4.9702 21.7775 5.2815 21.8858C5.5928 21.994 5.80259 22.0752 5.91086 22.1294C5.85673 22.2377 5.78228 22.3662 5.68754 22.5151C5.5928 22.664 5.50482 22.7926 5.42361 22.9009C5.17999 23.2528 4.93636 23.652 4.69273 24.0987C4.44911 24.5453 4.39497 25.0123 4.53032 25.4995C4.61153 25.8514 4.62506 26.2236 4.57092 26.6162C4.51678 27.0087 4.42204 27.3944 4.28669 27.7734C3.96186 26.7989 3.7047 25.7905 3.51521 24.7484C3.32572 23.7062 3.23098 22.6437 3.23098 21.5609V21.4797V21.3985ZM21.9496 40.2795C20.163 40.2795 18.4576 40.0359 16.8334 39.5486C15.1822 39.0885 13.646 38.4185 12.2248 37.5387C10.8037 36.659 9.52465 35.6236 8.38773 34.4325C7.22374 33.2144 6.24923 31.8744 5.46422 30.4127C5.73491 29.8983 6.03944 29.1269 6.37781 28.0982C6.71618 27.0696 6.77709 26.0545 6.56053 25.0529C6.56053 24.9446 6.62821 24.789 6.76356 24.5859C6.8989 24.3829 7.02072 24.2137 7.12899 24.0784C7.39969 23.6723 7.65685 23.2257 7.90048 22.7384C8.1441 22.2512 8.13057 21.7504 7.85987 21.2361C7.69746 20.8571 7.35909 20.539 6.84476 20.2819C6.33044 20.0247 5.58603 19.7879 4.61153 19.5713C4.39497 19.5172 4.17841 19.4698 3.96186 19.4292C3.7453 19.3886 3.55581 19.3547 3.3934 19.3277C3.66409 16.9997 4.3273 14.8341 5.38301 12.831C6.46579 10.8278 7.8328 9.08862 9.48405 7.61332C11.1353 6.13803 13.0302 4.96727 15.1687 4.10105C17.3072 3.26189 19.5675 2.84231 21.9496 2.84231C23.6008 2.84231 25.1844 3.04533 26.7003 3.45138C28.2162 3.85742 29.6509 4.43942 31.0044 5.19736C30.6795 5.03495 30.3682 4.9402 30.0704 4.91314C29.7727 4.88607 29.502 4.87253 29.2584 4.87253H28.8523H28.4869C28.3515 4.8996 28.2297 4.91314 28.1214 4.91314H27.7154C27.4176 4.91314 27.0793 4.8793 26.7003 4.81162C26.3213 4.74395 25.8882 4.57476 25.401 4.30407C24.643 3.92509 23.9663 3.64087 23.3707 3.45138C22.7752 3.26189 22.1932 3.16715 21.6247 3.16715C20.9209 3.16715 20.1968 3.30927 19.4524 3.59349C18.708 3.87772 17.8485 4.34467 16.874 4.99434C16.0349 5.53574 15.3108 6.21924 14.7017 7.04486C14.0926 7.87048 13.6257 8.77055 13.3009 9.74505C13.0031 10.7196 12.8745 11.6805 12.9151 12.628C12.9557 13.5754 13.152 14.4552 13.5039 15.2672C13.937 16.2417 14.4378 16.9523 15.0062 17.399C15.5747 17.8456 16.2785 18.0689 17.1177 18.0689C17.3342 18.0689 17.544 18.0622 17.747 18.0486C17.9501 18.0351 18.1463 18.0148 18.3358 17.9877C18.5524 17.9607 18.7757 17.9336 19.0058 17.9065C19.2359 17.8795 19.4592 17.8659 19.6757 17.8659C19.9464 17.8659 20.2104 17.8862 20.4675 17.9268C20.7247 17.9674 20.9751 18.0283 21.2187 18.1095C21.6789 18.272 22.0782 18.6103 22.4165 19.1247C22.7549 19.639 23.0459 20.3428 23.2895 21.2361C23.5331 22.1294 23.7091 23.1174 23.8174 24.2002C23.9257 25.283 24.0204 26.3387 24.1016 27.3673C24.1828 28.2065 24.2573 29.0118 24.3249 29.7833C24.3926 30.5548 24.4941 31.2383 24.6295 31.8338C24.7107 32.1857 24.8122 32.5038 24.934 32.788C25.0558 33.0722 25.1844 33.3091 25.3197 33.4986C25.5092 33.8234 25.7529 34.0671 26.0506 34.2295C26.3484 34.3919 26.6597 34.4731 26.9845 34.4731C27.9049 34.4731 28.7305 34.3242 29.4614 34.0265C30.1923 33.7287 30.8284 33.282 31.3698 32.6865C31.8029 32.1993 32.148 31.6782 32.4052 31.1232C32.6624 30.5683 32.8722 30.0472 33.0346 29.56L33.3594 28.7479L33.6842 28.1794C34.8753 26.853 35.5182 25.6484 35.6129 24.5656C35.7077 23.4829 35.7145 22.5354 35.6332 21.7233C35.5791 21.1278 35.5656 20.6947 35.5926 20.424C35.6197 20.1533 35.7551 19.9097 35.9987 19.6931C36.2152 19.5036 36.4183 19.3209 36.6077 19.145C36.7972 18.969 36.9867 18.7998 37.1762 18.6374C37.5552 18.2855 37.88 17.9877 38.1507 17.7441C38.4214 17.5005 38.6515 17.2704 38.841 17.0538C38.9763 16.9185 39.1523 16.6884 39.3688 16.3636C39.5854 16.0387 39.6531 15.6733 39.5719 15.2672V15.2266C39.9238 16.2282 40.1945 17.2569 40.384 18.3126C40.5734 19.3683 40.6682 20.4511 40.6682 21.5609C40.6682 24.1325 40.1809 26.5553 39.2064 28.8291C38.2049 31.1029 36.8581 33.0858 35.1663 34.7776C33.4744 36.4695 31.4916 37.8162 29.2178 38.8178C26.9439 39.7923 24.5212 40.2795 21.9496 40.2795Z" fill="#D9241B"/>
</g>
<defs>
<clipPath id="clip0_65_691">
<rect width="42" height="43" fill="white" transform="matrix(1 0 0 -1 0.949219 43)"/>
</clipPath>
</defs>
</svg>
