<svg width="43" height="43" viewBox="0 0 43 43" fill="none" xmlns="http://www.w3.org/2000/svg">
<g clip-path="url(#clip0_65_776)">
<path d="M41.4682 35.8536H37.5296V15.7545C37.5296 15.0507 37.2792 14.4416 36.7784 13.9273C36.2777 13.413 35.6754 13.1558 34.9715 13.1558C34.2677 13.1558 33.6587 13.413 33.1444 13.9273C32.63 14.4416 32.3729 15.0507 32.3729 15.7545V24.2408C32.3729 24.5927 32.2443 24.8972 31.9871 25.1544C31.73 25.4116 31.4254 25.5401 31.0735 25.5401C30.6946 25.5401 30.3765 25.4116 30.1193 25.1544C29.8622 24.8972 29.7336 24.5927 29.7336 24.2408V15.0642C29.7336 14.5228 29.5509 14.0694 29.1854 13.704C28.82 13.3385 28.3666 13.1558 27.8252 13.1558H26.4852V12.5061C26.4852 12.4249 26.4649 12.3437 26.4243 12.2625C26.3837 12.1813 26.3499 12.0866 26.3228 11.9783L24.4144 10.0699L24.2114 9.94807L23.8866 9.90747H23.2369V8.60813H24.5768C24.658 8.60813 24.7393 8.58783 24.8205 8.54723C24.9017 8.50662 24.9829 8.45925 25.0641 8.40511L26.3228 7.10577L26.4446 6.90275L26.4852 6.57792H33.6316C33.794 6.57792 33.9429 6.52377 34.0783 6.4155C34.2136 6.30722 34.2813 6.1448 34.2813 5.92825V3.32957C34.2813 3.16715 34.2271 3.01826 34.1189 2.88292C34.0106 2.74757 33.8482 2.6799 33.6316 2.6799H26.4852C26.4852 2.59869 26.4649 2.51748 26.4243 2.43627C26.3837 2.35506 26.3499 2.27385 26.3228 2.19264L24.9829 0.852699C24.9558 0.852699 24.9017 0.839165 24.8205 0.812096C24.7393 0.785027 24.658 0.771492 24.5768 0.771492H18.0801C17.9989 0.771492 17.9177 0.791794 17.8365 0.832397C17.7553 0.873001 17.6741 0.906841 17.5929 0.93391L16.3342 2.27385C16.3071 2.30092 16.2732 2.36183 16.2326 2.45657C16.192 2.55132 16.1717 2.65283 16.1717 2.7611H9.02537C8.86295 2.7611 8.71407 2.82201 8.57872 2.94382C8.44338 3.06564 8.3757 3.23482 8.3757 3.45138V6.00945C8.3757 6.17187 8.42984 6.30722 8.53812 6.4155C8.6464 6.52377 8.80881 6.57792 9.02537 6.57792H16.1717C16.1717 6.65912 16.192 6.7471 16.2326 6.84184C16.2732 6.93658 16.3071 7.02456 16.3342 7.10577L17.6741 8.40511C17.7012 8.45925 17.7621 8.50662 17.8568 8.54723C17.9516 8.58783 18.0531 8.60813 18.1613 8.60813H19.5013V9.90747H18.8516C18.7433 9.90747 18.6486 9.92777 18.5674 9.96838C18.4862 10.009 18.405 10.0428 18.3238 10.0699L16.3342 11.9783L16.2123 12.1813L16.1717 12.5061V25.4589C16.1717 25.6214 16.2326 25.777 16.3545 25.9259C16.4763 26.0748 16.6319 26.1492 16.8214 26.1492V28.0576C16.8214 28.22 16.8823 28.3689 17.0041 28.5043C17.1259 28.6396 17.2951 28.7073 17.5117 28.7073H18.1613V30.6157C18.1613 30.7781 18.2223 30.9338 18.3441 31.0826C18.4659 31.2315 18.6351 31.306 18.8516 31.306H19.5013V35.204C19.5013 35.2852 19.5216 35.3664 19.5622 35.4476C19.6028 35.5288 19.6366 35.61 19.6637 35.6912L21.0037 37.0312C21.1119 37.1665 21.2608 37.2342 21.4503 37.2342C21.6398 37.2342 21.7887 37.1665 21.8969 37.0312L23.2369 35.6912C23.291 35.6642 23.3316 35.6033 23.3587 35.5085C23.3858 35.4138 23.3993 35.3123 23.3993 35.204V31.306H24.0896C24.252 31.306 24.4009 31.2451 24.5362 31.1232C24.6716 31.0014 24.7393 30.8322 24.7393 30.6157V28.7073H25.3889C25.5513 28.7073 25.707 28.6464 25.8559 28.5246C26.0048 28.4027 26.0792 28.2471 26.0792 28.0576V26.1492C26.2416 26.1492 26.3905 26.0883 26.5258 25.9665C26.6612 25.8447 26.7289 25.6755 26.7289 25.4589V14.4146H28.0688C28.2312 14.4146 28.3801 14.4755 28.5155 14.5973C28.6508 14.7191 28.7185 14.8747 28.7185 15.0642V24.119C28.7185 24.8499 28.9756 25.4657 29.49 25.9665C30.0043 26.4673 30.6133 26.7177 31.3172 26.7177C32.021 26.7177 32.6233 26.4673 33.1241 25.9665C33.6248 25.4657 33.8752 24.8499 33.8752 24.119V15.7545C33.8752 15.3755 34.0038 15.0575 34.261 14.8003C34.5181 14.5431 34.8362 14.4146 35.2152 14.4146C35.5941 14.4146 35.8716 14.5431 36.0476 14.8003C36.2235 15.0575 36.3115 15.3755 36.3115 15.7545V35.8536H23.8866C23.8054 35.8536 23.7241 35.8739 23.6429 35.9146C23.5617 35.9552 23.4805 35.989 23.3993 36.0161L21.3285 38.2087L19.1765 36.0161L18.9734 35.9349L18.6486 35.8536H1.18873C0.999245 35.8536 0.843595 35.9146 0.721782 36.0364C0.599969 36.1582 0.539062 36.3274 0.539062 36.5439V41.7819C0.539062 41.9443 0.599969 42.0796 0.721782 42.1879C0.843595 42.2962 0.999245 42.3503 1.18873 42.3503H41.4682C41.6307 42.3503 41.7795 42.2894 41.9149 42.1676C42.0502 42.0458 42.1179 41.8902 42.1179 41.7007V36.5439C42.1179 36.3274 42.057 36.1582 41.9352 36.0364C41.8134 35.9146 41.6577 35.8536 41.4682 35.8536ZM17.4305 24.8093V24.119H25.2265V24.8093H17.4305ZM17.4305 22.9009V13.0746H25.2265V22.8197H17.4305V22.9009ZM33.0631 5.35978H29.1651V4.01984H33.0631V5.35978ZM27.8252 4.01984V5.35978H26.4852V4.01984H27.8252ZM9.59383 4.01984H13.4918V5.35978H9.59383V4.01984ZM14.8318 5.35978V4.01984H16.1717V5.35978H14.8318ZM17.4305 6.33429V3.00473L18.3238 2.11143H24.3332L25.2265 3.00473V6.33429L24.3332 7.26819H18.3238L17.4305 6.33429ZM20.6788 8.60813H21.9782V9.90747H20.6788V8.60813ZM19.014 11.1662H23.6429L24.3332 11.8159H18.3238L19.014 11.1662ZM21.9782 34.9604L21.3285 35.61L20.6788 34.9604V31.306H21.9782V34.9604ZM24.5768 27.3673H21.9782V28.7073H23.3181V30.0472H19.4201V28.7073H20.76V27.3673H18.1613V26.068H24.658V27.3673H24.5768ZM1.87901 41.0104V39.6705H18.0801V38.3711H1.87901V37.0312H18.4862L20.9224 39.4268C21.0307 39.5622 21.1796 39.6299 21.3691 39.6299C21.5586 39.6299 21.7075 39.5622 21.8157 39.4268L24.252 37.0312H40.8592V38.3711H24.5768V39.6705H40.778V41.0104H1.87901ZM27.4191 33.7016C27.5274 33.837 27.6695 33.9046 27.8455 33.9046C28.0214 33.9046 28.1771 33.837 28.3124 33.7016L30.2208 31.7932L29.3275 30.8593L27.8252 32.3617L26.9725 31.5496C26.8642 31.4142 26.7153 31.3466 26.5258 31.3466C26.3364 31.3466 26.1875 31.4142 26.0792 31.5496L24.1708 33.458L25.0641 34.3513L26.5664 32.8895L27.4191 33.7016ZM15.2378 33.7016L16.0905 32.8895L17.5929 34.3513L18.4862 33.458L16.5778 31.5496C16.4695 31.4142 16.3206 31.3466 16.1311 31.3466C15.9416 31.3466 15.7928 31.4142 15.6845 31.5496L14.8318 32.3617L13.3294 30.8593L12.4361 31.7932L14.3445 33.7016C14.4799 33.837 14.6355 33.9046 14.8115 33.9046C14.9874 33.9046 15.1296 33.837 15.2378 33.7016Z" fill="#D9241B"/>
</g>
<defs>
<clipPath id="clip0_65_776">
<rect width="42" height="43" fill="white" transform="matrix(1 0 0 -1 0.328125 43)"/>
</clipPath>
</defs>
</svg>
