<svg width="43" height="44" viewBox="0 0 43 44" fill="none" xmlns="http://www.w3.org/2000/svg">
<g clip-path="url(#clip0_65_802)">
<path d="M7.64482 40.085H9.39081V41.3032H7.64482V40.085ZM4.43708 41.222H6.83274V40.0038H4.43708C4.22052 40.0038 4.0378 39.9226 3.88892 39.7602C3.74004 39.5978 3.6656 39.3948 3.6656 39.1511V38.3391H2.52868V39.1511C2.52868 39.7467 2.7114 40.2407 3.07683 40.6332C3.44227 41.0257 3.89569 41.222 4.43708 41.222ZM24.4956 13.4486H25.9168V14.7073H24.4956V13.4486ZM21.8563 13.4486H23.2775V14.7073H21.8563V13.4486ZM41.5494 16.6157L30.302 6.50525C30.1396 6.34283 29.9366 6.22102 29.693 6.13981C29.4494 6.05861 29.2057 6.018 28.9621 6.018H28.2312V1.55152H17.7147V6.018C17.2816 6.04507 16.9026 6.24132 16.5778 6.60676C16.2529 6.9722 16.0905 7.41208 16.0905 7.9264V18.0775H15.319V13.9358H6.42669V18.0775H2.85351C2.20384 18.0775 1.65568 18.3008 1.20903 18.7475C0.762386 19.1941 0.539062 19.7423 0.539062 20.3919V40.8159C0.539062 41.4385 0.762386 41.9799 1.20903 42.4401C1.65568 42.9003 2.20384 43.1304 2.85351 43.1304H40.2095C40.7509 43.1304 41.2043 42.9477 41.5698 42.5822C41.9352 42.2168 42.1179 41.7634 42.1179 41.222V17.9963C42.1179 17.6985 42.0638 17.4346 41.9555 17.2045C41.8472 16.9744 41.7119 16.7782 41.5494 16.6157ZM18.9734 2.81026H27.0537V3.78476H18.9734V2.81026ZM18.9734 5.0435H27.0537V6.018H18.9734V5.0435ZM13.5325 15.1946H14.1009V18.0775H13.5325V15.1946ZM11.4616 15.1946H12.2737V18.0775H11.4616V15.1946ZM9.39081 15.1946H10.2029V18.0775H9.39081V15.1946ZM7.64482 15.1946H8.21328V18.0775H7.64482V15.1946ZM19.9479 39.1511V40.8159C19.9479 41.1137 19.8464 41.3641 19.6434 41.5671C19.4404 41.7701 19.19 41.8716 18.8922 41.8716H2.85351C2.55574 41.8716 2.30535 41.7701 2.10233 41.5671C1.89931 41.3641 1.7978 41.1137 1.7978 40.8159V37.3239H19.9479V39.1511ZM19.9479 36.1058H1.7978V25.1833H19.9479V36.1058ZM19.9479 23.9651H1.7978V20.3919C1.7978 20.0942 1.89931 19.8438 2.10233 19.6408C2.30535 19.4377 2.55574 19.3362 2.85351 19.3362H18.8922H18.9328H19.0546C19.2983 19.3633 19.5081 19.4716 19.684 19.6611C19.86 19.8505 19.9479 20.0942 19.9479 20.3919V23.9651ZM20.8818 19.255C20.8818 19.2009 20.8683 19.167 20.8412 19.1535C20.8142 19.14 20.8006 19.1197 20.8006 19.0926L20.76 19.052L20.7194 19.0114L20.6788 18.9708L20.6382 18.9302L20.5976 18.849L20.557 18.8084L20.5164 18.7678L20.4758 18.7272L20.4352 18.6866L20.3946 18.646L20.354 18.6053L20.2322 18.5647C20.178 18.5647 20.1442 18.5512 20.1307 18.5241C20.1171 18.4971 20.0833 18.4835 20.0291 18.4835H19.9479L19.8667 18.4023V11.0529C19.8667 10.9447 19.9073 10.8499 19.9885 10.7687C20.0698 10.6875 20.178 10.6469 20.3134 10.6469H28.6373C28.6914 10.6469 28.7523 10.6604 28.82 10.6875C28.8877 10.7146 28.935 10.7281 28.9621 10.7281L38.3011 19.4174C38.3552 19.4445 38.3823 19.4716 38.3823 19.4986V19.6611V19.7017V19.7423V38.7451C38.3823 38.8804 38.3485 38.982 38.2808 39.0496C38.2131 39.1173 38.1116 39.1511 37.9763 39.1511H21.2067V20.3919V20.3107V20.2295V20.1483V20.0671V19.9859V19.9047V19.8235V19.7423C21.2067 19.6881 21.1931 19.6611 21.1661 19.6611L21.1255 19.5799C21.1255 19.5257 21.1119 19.4986 21.0849 19.4986L21.0443 19.4174L20.9224 19.2956L20.8818 19.255ZM40.2095 41.8716H20.963V41.831V41.7904V41.7092V41.6686V41.628V41.5874V41.5468V41.5062V41.4656V41.425V41.3844V41.3032V41.2626V41.222V41.1408V41.1002V41.0595V41.0189V40.8971V40.4099H37.8139C38.274 40.4099 38.6665 40.2475 38.9914 39.9226C39.3162 39.5978 39.4786 39.2053 39.4786 38.7451V19.5799C39.4786 19.3633 39.438 19.1467 39.3568 18.9302C39.2756 18.7136 39.1538 18.5377 38.9914 18.4023L29.8148 9.7536C29.6794 9.61825 29.5441 9.52351 29.4088 9.46937C29.2734 9.41523 29.1245 9.36109 28.9621 9.30695H28.8403H28.6373H20.1104C19.6772 9.30695 19.2983 9.46937 18.9734 9.7942C18.6486 10.119 18.4862 10.5115 18.4862 10.9717V18.0775H17.2274V7.9264C17.2274 7.76398 17.2951 7.60834 17.4305 7.45945C17.5658 7.31057 17.7282 7.23613 17.9177 7.23613H28.9621C29.0433 7.23613 29.1245 7.2632 29.2057 7.31734L29.49 7.43915L40.6156 17.509C40.6968 17.5902 40.7441 17.6714 40.7577 17.7527C40.7712 17.8339 40.778 17.9151 40.778 17.9963V41.222C40.8321 41.3844 40.7915 41.5333 40.6562 41.6686C40.5208 41.804 40.3719 41.8716 40.2095 41.8716ZM29.0433 31.7205C30.0449 31.7205 30.9043 31.3619 31.6217 30.6445C32.339 29.9272 32.6977 29.0677 32.6977 28.0662C32.6977 27.5248 32.5488 26.8074 32.2511 25.9141C31.9533 24.9938 31.6217 24.0869 31.2563 23.1936C30.8908 22.3003 30.5457 21.5018 30.2208 20.798C29.896 20.0942 29.7065 19.6611 29.6524 19.4986L29.0433 18.4023L28.4749 19.4986C28.3936 19.6611 28.1906 20.0942 27.8658 20.798C27.541 21.5018 27.1958 22.3003 26.8304 23.1936C26.4649 24.0869 26.1333 24.9938 25.8356 25.9141C25.5649 26.8074 25.4295 27.5248 25.4295 28.0662C25.4295 29.0677 25.7882 29.9272 26.5055 30.6445C27.2229 31.3619 28.0688 31.7205 29.0433 31.7205ZM29.0433 21.1228C29.5576 22.2056 30.0855 23.4643 30.6269 24.899C31.1683 26.3337 31.439 27.3894 31.439 28.0662C31.439 28.7429 31.2089 29.3181 30.7487 29.7918C30.2885 30.2656 29.7201 30.5024 29.0433 30.5024C28.3936 30.5024 27.8319 30.2656 27.3582 29.7918C26.8845 29.3181 26.6477 28.7429 26.6477 28.0662C26.6477 27.3894 26.9387 26.3269 27.5207 24.8787C28.1026 23.4305 28.6102 22.1785 29.0433 21.1228ZM22.3436 34.1974H35.8242V35.4561H22.3436V34.1974ZM6.06125 20.2295H15.6033V21.4883H6.06125V20.2295ZM22.3436 36.5119H35.8242V37.7706H22.3436V36.5119ZM9.10658 34.4613C9.10658 34.4613 9.22839 34.5865 9.47202 34.8369C9.71564 35.0873 10.1758 35.2125 10.8526 35.2125C11.5293 35.2125 12.1181 34.9689 12.6189 34.4816C13.1196 33.9944 13.37 33.3989 13.37 32.6951C13.37 32.0183 13.0723 31.01 12.4767 29.67C11.8812 28.3301 11.5428 27.5518 11.4616 27.3353L10.8526 26.2796L10.2841 27.3353C10.2029 27.5518 9.86453 28.3166 9.269 29.6294C8.67347 30.9423 8.3757 31.9642 8.3757 32.6951C8.3757 33.3718 8.61933 33.9606 9.10658 34.4613ZM10.8526 29.0813C11.1503 29.7851 11.4346 30.4821 11.7053 31.1724C11.976 31.8627 12.1113 32.3702 12.1113 32.6951C12.1113 33.047 11.9895 33.3447 11.7459 33.5884C11.5022 33.832 11.2045 33.9538 10.8526 33.9538C10.5277 33.9538 10.2435 33.832 9.99988 33.5884C9.75625 33.3447 9.63444 33.047 9.63444 32.6951C9.63444 32.3702 9.75625 31.8491 9.99988 31.1318C10.2435 30.4144 10.5277 29.7309 10.8526 29.0813Z" fill="white"/>
</g>
<defs>
<clipPath id="clip0_65_802">
<rect width="42" height="43" fill="white" transform="matrix(1 0 0 -1 0.328125 43.7803)"/>
</clipPath>
</defs>
</svg>
