<svg width="85" height="22" viewBox="0 0 85 22" fill="none" xmlns="http://www.w3.org/2000/svg">
<path d="M19.7559 -24.5605V-17.7539H36.8555V19.1016H0V-17.7539V-24.5605C0 -28.0469 0.249023 -31.2842 0.74707 -34.2725C1.24512 -37.3161 1.99219 -40.1245 2.98828 -42.6978C3.98438 -45.271 5.22949 -47.5814 6.72363 -49.6289C8.21777 -51.7318 9.93327 -53.5856 11.8701 -55.1904C14.5817 -57.4593 17.6668 -59.1471 21.1255 -60.2539C24.5841 -61.3607 28.3333 -61.9141 32.373 -61.9141V-42.2412C30.1595 -42.2412 27.5033 -41.508 24.4043 -40.0415C21.3053 -38.575 19.7559 -33.4147 19.7559 -24.5605ZM80.6006 -42.2412V-61.9141C76.5055 -61.9141 72.7425 -61.3607 69.3115 -60.2539C65.8805 -59.1471 62.8092 -57.4593 60.0977 -55.1904C58.1055 -53.5856 56.3623 -51.7318 54.8682 -49.6289C53.374 -47.5814 52.1289 -45.271 51.1328 -42.6978C50.1367 -40.1245 49.3896 -37.3161 48.8916 -34.2725C48.3936 -31.2842 48.1445 -28.0469 48.1445 -24.5605V19.1016H85V-17.7539H67.9004V-24.5605C67.9004 -33.4147 69.4637 -38.575 72.5903 -40.0415C75.717 -41.508 78.387 -42.2412 80.6006 -42.2412Z" fill="#D9241B"/>
</svg>
