<svg width="24" height="24" viewBox="0 0 24 24" fill="none" xmlns="http://www.w3.org/2000/svg">
<path d="M19.9078 8.29473C20.074 8.46093 20.1571 8.65734 20.1571 8.88397C20.1571 9.1106 20.074 9.30701 19.9078 9.47321C19.7567 9.62429 19.5679 9.69983 19.3413 9.69983C19.1146 9.69983 18.9182 9.62429 18.752 9.47321L12.8143 3.53553V23.1163C12.8143 23.3429 12.735 23.5355 12.5764 23.6942C12.4177 23.8528 12.2251 23.9321 11.9985 23.9321C11.7719 23.9321 11.5792 23.8528 11.4206 23.6942C11.2619 23.5355 11.1826 23.3429 11.1826 23.1163V3.53553L5.24494 9.47321C5.09386 9.62429 4.90122 9.69983 4.66704 9.69983C4.43286 9.69983 4.24022 9.62429 4.08914 9.47321C3.92294 9.30701 3.83984 9.1106 3.83984 8.88397C3.83984 8.65734 3.92294 8.46093 4.08914 8.29473L11.4092 0.95196C11.5754 0.800873 11.7719 0.72533 11.9985 0.72533C12.2251 0.72533 12.4215 0.800873 12.5877 0.95196L19.9078 8.29473Z" fill="white"/>
</svg>
