<svg width="15" height="15" viewBox="0 0 15 15" fill="none" xmlns="http://www.w3.org/2000/svg">
<path d="M14.5141 10.0386C14.7328 10.1479 14.8969 10.394 14.8969 10.6675C14.8969 10.6948 14.8969 10.7495 14.8969 10.8042L14.2406 13.6479C14.1586 13.9487 13.9125 14.1401 13.6117 14.1401C6.58438 14.1401 0.924219 8.47998 0.924219 1.45264C0.924219 1.15186 1.11563 0.905762 1.41641 0.82373L4.26016 0.16748C4.31484 0.16748 4.36953 0.140137 4.39688 0.140137C4.67031 0.140137 4.91641 0.304199 5.02578 0.550293L6.33828 3.61279C6.36563 3.69482 6.39297 3.77686 6.39297 3.85889C6.39297 4.07764 6.28359 4.26904 6.14688 4.37842L4.47891 5.74561C5.49063 7.87842 7.18594 9.57373 9.31875 10.5854L10.6859 8.91748C10.7953 8.78076 10.9867 8.67139 11.1781 8.67139C11.2875 8.67139 11.3695 8.69873 11.4516 8.72607L14.5141 10.0386Z" fill="white"/>
</svg>
