<svg width="56" height="56" viewBox="0 0 56 56" fill="none" xmlns="http://www.w3.org/2000/svg">
<rect width="55" height="55" transform="translate(0.730469 0.920044)" fill="#D9261C"/>
<path d="M36.305 38.9607C36.2263 38.9607 36.1476 38.9607 36.0689 38.9607C32.8426 38.5987 29.8681 37.5364 27.1454 35.7737C24.6116 34.1684 22.542 32.1067 20.9367 29.5886C19.174 26.8502 18.1196 23.8678 17.7733 20.6415C17.7104 19.9333 17.9032 19.3117 18.3517 18.7766C18.8003 18.2415 19.3708 17.9424 20.0632 17.8795C20.079 17.8795 20.1026 17.8795 20.1341 17.8795C20.1655 17.8795 20.1931 17.8795 20.2167 17.8795C20.2403 17.8795 20.26 17.8795 20.2757 17.8795H23.2974H23.321C23.7302 17.8795 24.1158 17.9739 24.4778 18.1628C24.8398 18.3516 25.1388 18.6113 25.3749 18.9418C25.6109 19.2723 25.7604 19.6422 25.8234 20.0513C25.8863 20.5078 25.9729 20.9642 26.0831 21.4206C26.1932 21.877 26.3349 22.3255 26.508 22.7662C26.6182 23.0809 26.6693 23.3957 26.6614 23.7105C26.6536 24.0252 26.5867 24.3321 26.4608 24.6311C26.3349 24.9302 26.1618 25.1977 25.9414 25.4338L24.9263 26.4253C26.2641 28.6444 28.0425 30.4228 30.2615 31.7605L31.253 30.769C31.5993 30.4228 32.0163 30.1985 32.5042 30.0962C32.9921 29.9939 33.4642 30.0214 33.9206 30.1788C34.802 30.5093 35.7069 30.7375 36.6355 30.8634C37.265 30.9579 37.7883 31.249 38.2054 31.7369C38.6224 32.2248 38.8231 32.7835 38.8073 33.413V36.4347C38.8073 36.7652 38.7444 37.0839 38.6185 37.3908C38.4926 37.6977 38.3116 37.9692 38.0755 38.2053C37.5876 38.7089 36.9975 38.9607 36.305 38.9607ZM23.321 18.8946H20.2757C20.26 18.8946 20.2403 18.8946 20.2167 18.8946C20.1931 18.8946 20.1734 18.8946 20.1577 18.8946C20.016 18.9103 19.8822 18.9379 19.7563 18.9772C19.6304 19.0166 19.5163 19.0756 19.414 19.1543C19.3117 19.233 19.2134 19.3274 19.1189 19.4376C18.993 19.5949 18.9026 19.7681 18.8475 19.9569C18.7924 20.1458 18.7727 20.3346 18.7884 20.5235C19.1032 23.6082 20.1026 26.4489 21.7866 29.0457C23.3132 31.4379 25.2804 33.3973 27.6884 34.9239C30.2694 36.6078 33.0944 37.6151 36.1633 37.9456C36.2105 37.9456 36.2578 37.9456 36.305 37.9456C36.7142 37.9456 37.0643 37.7961 37.3555 37.497C37.6466 37.198 37.7922 36.8439 37.7922 36.4347V33.413V33.3894C37.808 33.2005 37.7804 33.0196 37.7096 32.8464C37.6388 32.6733 37.5483 32.5199 37.4381 32.3861C37.328 32.2523 37.1902 32.1382 37.025 32.0438C36.8597 31.9494 36.6827 31.8864 36.4938 31.8549C35.4866 31.729 34.5108 31.4851 33.5665 31.1231C33.3777 31.0602 33.1888 31.0326 33 31.0405C32.8111 31.0484 32.6262 31.0877 32.4452 31.1585C32.2642 31.2293 32.1029 31.3356 31.9613 31.4772L30.6865 32.752C30.6393 32.7992 30.5802 32.8346 30.5094 32.8582C30.4386 32.8818 30.3678 32.8936 30.2969 32.8936C30.2261 32.8936 30.1592 32.87 30.0963 32.8228C27.4365 31.3277 25.3591 29.2503 23.864 26.5905C23.801 26.4961 23.7774 26.3938 23.7932 26.2836C23.8089 26.1735 23.8561 26.079 23.9348 26.0004L25.2096 24.7256C25.3198 24.6154 25.4063 24.4974 25.4693 24.3715C25.5322 24.2456 25.5794 24.1118 25.6109 23.9701C25.6424 23.8285 25.6542 23.6869 25.6463 23.5452C25.6385 23.4036 25.6109 23.2619 25.5637 23.1203C25.2017 22.176 24.9578 21.1924 24.8319 20.1694C24.7847 19.9333 24.6902 19.7169 24.5486 19.5202C24.407 19.3235 24.2299 19.17 24.0174 19.0598C23.805 18.9497 23.5728 18.8946 23.321 18.8946ZM35.2899 25.8823C35.2427 25.8823 35.1954 25.8784 35.1482 25.8705C35.101 25.8626 35.0577 25.8469 35.0184 25.8233C34.979 25.7997 34.9436 25.7682 34.9122 25.7289C34.8807 25.6895 34.8531 25.6502 34.8295 25.6108C34.8059 25.5715 34.7941 25.5282 34.7941 25.481C34.6682 24.8829 34.44 24.3321 34.1095 23.8285C33.779 23.3249 33.3619 22.9078 32.8583 22.5773C32.3547 22.2468 31.8039 22.0186 31.2058 21.8927C31.1114 21.877 31.0327 21.8416 30.9698 21.7865C30.9068 21.7314 30.8596 21.6606 30.8281 21.574C30.7966 21.4874 30.7888 21.397 30.8045 21.3025C30.836 21.1766 30.9107 21.0743 31.0288 20.9956C31.1468 20.9169 31.2688 20.8855 31.3947 20.9012C32.5121 21.1215 33.4682 21.6291 34.263 22.4239C35.0577 23.2186 35.5653 24.1747 35.7856 25.2921C35.7856 25.3551 35.7817 25.418 35.7738 25.481C35.7659 25.5439 35.7423 25.603 35.703 25.658C35.6636 25.7131 35.6164 25.7603 35.5613 25.7997C35.5063 25.839 35.4472 25.8666 35.3843 25.8823C35.3371 25.8823 35.3056 25.8823 35.2899 25.8823ZM39.3031 25.8823C39.1772 25.8823 39.067 25.839 38.9726 25.7525C38.8782 25.6659 38.8231 25.5597 38.8073 25.4338C38.587 23.435 37.7726 21.7314 36.364 20.3228C34.9554 18.9143 33.2518 18.0998 31.253 17.8795C31.1114 17.8637 30.9973 17.8008 30.9107 17.6906C30.8242 17.5805 30.7888 17.4585 30.8045 17.3247C30.8202 17.1909 30.8832 17.0808 30.9934 16.9942C31.1035 16.9077 31.2216 16.8644 31.3475 16.8644C32.0872 16.9588 32.8032 17.128 33.4957 17.3719C34.1882 17.6159 34.8295 17.9228 35.4197 18.2926C36.0099 18.6625 36.5607 19.0992 37.0722 19.6028C37.5837 20.1064 38.0244 20.6533 38.3942 21.2435C38.7641 21.8337 39.0709 22.475 39.3149 23.1675C39.5588 23.86 39.728 24.5761 39.8224 25.3157C39.8224 25.4102 39.8067 25.4967 39.7752 25.5754C39.7438 25.6541 39.6887 25.721 39.61 25.7761C39.5313 25.8312 39.4526 25.8666 39.3739 25.8823C39.3582 25.8823 39.3346 25.8823 39.3031 25.8823Z" fill="white"/>
</svg>
