<svg width="15" height="11" viewBox="0 0 15 11" fill="none" xmlns="http://www.w3.org/2000/svg">
<path d="M13.9203 3.97266C14.0297 3.89062 14.1938 3.97266 14.1938 4.10938V9.6875C14.1938 10.4258 13.5922 11 12.8813 11H1.50625C0.767969 11 0.19375 10.4258 0.19375 9.6875V4.10938C0.19375 3.97266 0.330469 3.89062 0.439844 3.97266C1.06875 4.46484 1.86172 5.06641 4.65078 7.08984C5.225 7.5 6.20938 8.40234 7.19375 8.40234C8.15078 8.40234 9.1625 7.5 9.70938 7.08984C12.4984 5.06641 13.2914 4.46484 13.9203 3.97266ZM7.19375 7.5C6.5375 7.52734 5.63516 6.70703 5.17031 6.37891C1.53359 3.75391 1.26016 3.50781 0.439844 2.85156C0.275782 2.74219 0.19375 2.55078 0.19375 2.33203V1.8125C0.19375 1.10156 0.767969 0.5 1.50625 0.5H12.8813C13.5922 0.5 14.1938 1.10156 14.1938 1.8125V2.33203C14.1938 2.55078 14.0844 2.74219 13.9203 2.85156C13.1 3.50781 12.8266 3.75391 9.18984 6.37891C8.725 6.70703 7.82266 7.52734 7.19375 7.5Z" fill="white"/>
</svg>
